<?xml version="1.0"?>
<svg width="1372" height="1197" xmlns="http://www.w3.org/2000/svg" version="1.1">
 <polygon points="4,1194 4,3 1369,3 1369,1194 4,1194" stroke="#ffffff" fill="#ffffff"/>
 <polygon points="24,1181 61,1181 162,1181 310,1181 490,1181 686,1181 882,1181 1062,1181 1210,1181 1311,1181 1348,1181 1350,1181 1352,1180 1353,1180 1355,1179 1356,1177 1358,1176 1359,1174 1359,1173 1360,1171 1360,1169 1360,1137 1360,1050 1360,921 1360,766 1360,596 1360,426 1360,271 1360,142 1360,55 1360,23 1360,21 1359,19 1359,18 1358,16 1356,15 1355,13 1353,12 1352,12 1350,11 1348,11 1311,11 1210,11 1062,11 882,11 686,11 490,11 310,11 162,11 61,11 24,11 22,11 20,12 19,12 17,13 16,15 14,16 13,18 13,19 12,21 12,23 12,55 12,142 12,271 12,426 12,596 12,766 12,921 12,1050 12,1137 12,1169 12,1171 13,1173 13,1174 14,1176 16,1177 17,1179 19,1180 20,1180 22,1181 24,1181" stroke="#000000" fill="#FFFFCC"/>
 <text x="658" y="27" fill="#000000" font-family="Arial" font-size="12">AFL-2.57b</text>
 <polygon points="442,174 291,174 289,177 289,196 439,196 442,194 442,174" stroke="#bebebe" fill="#ffffff"/>
 <polyline points="439,177 289,177" stroke="#bebebe" fill="none"/>
 <polyline points="439,177 439,196" stroke="#bebebe" fill="none"/>
 <polyline points="439,177 442,174" stroke="#bebebe" fill="none"/>
 <text x="297" y="190" fill="#000000" font-family="Arial" font-size="12">AFL-2.57b/afl-showmap.c</text>
 <polygon points="687,561 563,561 561,564 561,583 685,583 687,581 687,561" stroke="#bebebe" fill="#ffffff"/>
 <polyline points="685,564 561,564" stroke="#bebebe" fill="none"/>
 <polyline points="685,564 685,583" stroke="#bebebe" fill="none"/>
 <polyline points="685,564 687,561" stroke="#bebebe" fill="none"/>
 <text x="569" y="577" fill="#000000" font-family="Arial" font-size="12">AFL-2.57b/alloc-inl.h</text>
 <polyline points="414,196 417,198 420,199 423,201 426,202 429,204 432,206 434,208 437,210 440,212 442,214 450,224 456,233 460,243 462,252 464,261 465,270 466,280 469,290 472,301 478,313 480,317 483,320 485,323 487,325 490,327 492,329 494,331 496,334 498,337 500,341 509,366 512,388 513,410 511,430 509,450 507,469 508,488 512,507 521,527 536,547 538,549 540,551 542,553 544,554 546,556 548,557 550,558 552,560 554,561 556,562" stroke="#0000cd" fill="none"/>
 <text x="482" y="311" fill="#000000" font-family="Arial" font-size="12">37</text>
 <polygon points="557,560 561,564 556,564 557,560" stroke="#0000cd" fill="#0000cd"/>
 <polygon points="680,101 570,101 568,104 568,123 678,123 680,121 680,101" stroke="#bebebe" fill="#ffffff"/>
 <polyline points="678,104 568,104" stroke="#bebebe" fill="none"/>
 <polyline points="678,104 678,123" stroke="#bebebe" fill="none"/>
 <polyline points="678,104 680,101" stroke="#bebebe" fill="none"/>
 <text x="576" y="117" fill="#000000" font-family="Arial" font-size="12">AFL-2.57b/hash.h</text>
 <polyline points="386,174 393,171 401,167 409,163 418,158 428,154 438,150 448,146 458,142 468,138 478,135 486,133 495,131 503,129 512,127 521,125 529,123 538,122 546,121 555,119 563,118" stroke="#0000cd" fill="none"/>
 <text x="486" y="127" fill="#000000" font-family="Arial" font-size="12">1</text>
 <polygon points="563,117 568,118 563,120 563,117" stroke="#0000cd" fill="#0000cd"/>
 <polygon points="712,401 538,401 536,404 536,423 710,423 712,421 712,401" stroke="#bebebe" fill="#ffffff"/>
 <polyline points="710,404 536,404" stroke="#bebebe" fill="none"/>
 <polyline points="710,404 710,423" stroke="#bebebe" fill="none"/>
 <polyline points="710,404 712,401" stroke="#bebebe" fill="none"/>
 <text x="544" y="417" fill="#000000" font-family="Arial" font-size="12">AFL-2.57b/android-ashmem.h</text>
 <polyline points="408,197 412,198 415,200 419,201 422,203 426,204 429,206 433,208 436,210 439,212 442,214 452,222 459,229 466,236 471,243 476,250 481,258 485,266 489,275 494,284 500,295 505,306 509,317 511,327 513,336 514,345 516,353 518,362 522,370 528,378 536,387 538,388 539,390 541,391 542,393 544,394 546,395 548,396 550,397 552,398 554,399" stroke="#0000cd" fill="none"/>
 <text x="486" y="252" fill="#000000" font-family="Arial" font-size="12">1</text>
 <polygon points="555,398 559,401 553,401 555,398" stroke="#0000cd" fill="#0000cd"/>
 <polygon points="1158,669 1042,669 1040,672 1040,691 1156,691 1158,689 1158,669" stroke="#bebebe" fill="#ffffff"/>
 <polyline points="1156,672 1040,672" stroke="#bebebe" fill="none"/>
 <polyline points="1156,672 1156,691" stroke="#bebebe" fill="none"/>
 <polyline points="1156,672 1158,669" stroke="#bebebe" fill="none"/>
 <text x="1048" y="685" fill="#000000" font-family="Arial" font-size="12">AFL-2.57b/config.h</text>
 <polyline points="427,174 429,174 430,173 432,173 433,172 435,172 436,171 438,171 439,170 441,170 442,169 447,167 451,165 454,163 457,160 460,158 462,156 465,154 469,152 473,150 478,148 481,148 483,147 485,147 487,147 489,147 491,147 493,148 495,148 497,148 500,148 524,148 563,146 613,145 670,143 731,141 791,141 848,142 896,144 933,149 954,157 958,170 968,203 982,252 999,313 1017,380 1036,449 1054,517 1071,578 1084,629 1094,664" stroke="#0000cd" fill="none"/>
 <text x="755" y="138" fill="#000000" font-family="Arial" font-size="12">15</text>
 <polygon points="1095,664 1095,669 1092,665 1095,664" stroke="#0000cd" fill="#0000cd"/>
 <polygon points="943,784 826,784 824,787 824,806 940,806 943,804 943,784" stroke="#bebebe" fill="#ffffff"/>
 <polyline points="940,787 824,787" stroke="#bebebe" fill="none"/>
 <polyline points="940,787 940,806" stroke="#bebebe" fill="none"/>
 <polyline points="940,787 943,784" stroke="#bebebe" fill="none"/>
 <text x="832" y="800" fill="#000000" font-family="Arial" font-size="12">AFL-2.57b/debug.h</text>
 <polyline points="404,196 415,200 427,204 439,208 451,211 463,215 473,219 483,222 490,225 496,228 500,230 506,237 511,243 514,250 516,257 518,263 519,270 521,276 525,283 529,289 536,295 555,307 573,313 591,315 609,315 627,313 644,312 661,312 678,316 695,324 712,337 723,351 730,365 734,378 735,392 735,406 734,420 734,435 735,449 740,465 748,481 751,485 754,487 757,489 759,491 762,493 765,494 768,496 771,498 774,500 776,504 788,528 794,550 797,570 798,590 797,609 795,628 795,648 797,668 802,691 812,715 816,723 820,731 825,738 831,746 837,753 842,759 848,765 854,771 859,776 864,781" stroke="#0000cd" fill="none"/>
 <text x="617" y="293" fill="#000000" font-family="Arial" font-size="12">54</text>
 <polygon points="866,780 868,784 864,782 866,780" stroke="#0000cd" fill="#0000cd"/>
 <polygon points="1352,669 1240,669 1238,672 1238,691 1350,691 1352,689 1352,669" stroke="#bebebe" fill="#ffffff"/>
 <polyline points="1350,672 1238,672" stroke="#bebebe" fill="none"/>
 <polyline points="1350,672 1350,691" stroke="#bebebe" fill="none"/>
 <polyline points="1350,672 1352,669" stroke="#bebebe" fill="none"/>
 <text x="1246" y="685" fill="#000000" font-family="Arial" font-size="12">AFL-2.57b/types.h</text>
 <polyline points="434,174 435,174 436,173 436,173 437,172 438,172 439,171 440,171 440,170 441,170 442,169 448,164 453,158 456,153 459,147 460,141 462,135 464,129 467,123 472,117 478,111 484,107 490,103 495,101 500,99 505,97 510,96 516,95 522,94 528,93 536,92 583,86 641,82 707,79 778,78 852,79 925,83 994,89 1058,98 1114,110 1158,126 1164,129 1170,132 1175,135 1180,137 1184,140 1188,143 1191,147 1195,151 1198,156 1202,162 1217,196 1231,241 1243,295 1254,355 1264,417 1273,479 1280,538 1286,590 1290,633 1293,664" stroke="#0000cd" fill="none"/>
 <text x="876" y="76" fill="#000000" font-family="Arial" font-size="12">72</text>
 <polygon points="1294,664 1293,669 1291,664 1294,664" stroke="#0000cd" fill="#0000cd"/>
 <polygon points="953,418 816,418 814,421 814,440 950,440 953,438 953,418" stroke="#bebebe" fill="#ffffff"/>
 <polyline points="950,421 814,421" stroke="#bebebe" fill="none"/>
 <polyline points="950,421 950,440" stroke="#bebebe" fill="none"/>
 <polyline points="950,421 953,418" stroke="#bebebe" fill="none"/>
 <text x="822" y="434" fill="#000000" font-family="Arial" font-size="12">AFL-2.57b/libdislocator</text>
 <polyline points="442,184 448,184 454,184 459,184 465,184 471,185 477,185 483,185 488,185 494,186 500,186 527,188 551,188 572,188 592,187 611,187 629,189 648,192 667,197 688,206 712,218 736,234 759,253 780,274 800,297 818,319 833,342 847,363 858,383 868,400 875,414" stroke="#0000cd" fill="none"/>
 <text x="621" y="184" fill="#000000" font-family="Arial" font-size="12">1</text>
 <polygon points="876,413 877,418 873,415 876,413" stroke="#0000cd" fill="#0000cd"/>
 <polygon points="692,721 558,721 556,724 556,743 690,743 692,741 692,721" stroke="#bebebe" fill="#ffffff"/>
 <polyline points="690,724 556,724" stroke="#bebebe" fill="none"/>
 <polyline points="690,724 690,743" stroke="#bebebe" fill="none"/>
 <polyline points="690,724 692,721" stroke="#bebebe" fill="none"/>
 <text x="564" y="737" fill="#000000" font-family="Arial" font-size="12">AFL-2.57b/libtokencap</text>
 <polyline points="416,196 419,198 422,199 425,201 427,202 430,204 433,206 435,208 438,210 440,212 442,214 455,232 462,248 466,264 467,280 467,296 466,313 466,330 467,348 471,367 478,387 480,391 482,395 485,398 487,400 489,402 492,405 494,407 496,410 498,413 500,417 506,439 509,466 510,497 511,531 511,567 512,601 514,634 518,664 525,689 536,707 537,708 539,710 540,711 542,713 543,714 545,716 546,717 548,718 549,719 551,720" stroke="#0000cd" fill="none"/>
 <text x="486" y="385" fill="#000000" font-family="Arial" font-size="12">5</text>
 <polygon points="552,718 556,722 551,721 552,718" stroke="#0000cd" fill="#0000cd"/>
 <polyline points="687,574 696,575 704,575 713,576 722,577 731,578 740,579 749,580 758,581 767,583 776,584 780,585 784,586 788,587 791,588 794,590 797,591 800,592 804,593 808,594 812,595 836,601 856,605 875,608 892,611 908,614 925,616 942,619 960,623 981,629 1004,636 1011,639 1019,642 1026,645 1033,648 1041,651 1048,654 1055,658 1061,661 1067,664 1073,667" stroke="#0000cd" fill="none"/>
 <text x="880" y="593" fill="#000000" font-family="Arial" font-size="12">2</text>
 <polygon points="1074,665 1078,669 1072,668 1074,665" stroke="#0000cd" fill="#0000cd"/>
 <polyline points="652,583 658,586 663,589 669,592 675,595 682,598 688,602 694,605 700,609 706,613 712,617 720,624 732,635 747,651 764,669 783,689 802,710 821,730 839,750 855,767 868,781" stroke="#0000cd" fill="none"/>
 <text x="759" y="651" fill="#000000" font-family="Arial" font-size="12">7</text>
 <polygon points="870,779 872,784 867,782 870,779" stroke="#0000cd" fill="#0000cd"/>
 <polyline points="685,561 699,559 713,556 728,554 742,551 756,549 770,547 782,545 794,543 804,542 812,541 830,539 845,538 859,537 871,535 883,535 895,534 908,535 921,536 937,538 954,541 992,550 1030,561 1067,574 1104,588 1139,602 1171,617 1202,631 1228,645 1251,657 1270,667" stroke="#0000cd" fill="none"/>
 <text x="990" y="547" fill="#000000" font-family="Arial" font-size="12">49</text>
 <polygon points="1271,665 1275,669 1269,668 1271,665" stroke="#0000cd" fill="#0000cd"/>
 <polyline points="673,561 677,560 681,559 685,558 689,557 693,555 697,554 701,552 705,550 708,549 712,547 721,543 728,539 734,536 740,532 746,528 751,524 756,520 762,515 768,510 776,504 781,501 785,498 788,495 791,492 794,489 797,487 800,484 803,481 807,478 812,474 817,471 821,467 826,464 831,461 836,458 841,455 846,452 850,449 855,446 859,443" stroke="#0000cd" fill="none"/>
 <text x="759" y="502" fill="#000000" font-family="Arial" font-size="12">6</text>
 <polygon points="858,442 863,440 860,445 858,442" stroke="#0000cd" fill="#0000cd"/>
 <polyline points="680,110 724,109 777,108 836,108 899,109 962,112 1024,118 1081,126 1132,137 1173,151 1202,170 1222,199 1240,241 1254,292 1265,351 1275,413 1282,476 1287,535 1290,589 1293,633 1294,664" stroke="#0000cd" fill="none"/>
 <text x="991" y="112" fill="#000000" font-family="Arial" font-size="12">11</text>
 <polygon points="1295,664 1294,669 1292,664 1295,664" stroke="#0000cd" fill="#0000cd"/>
 <polyline points="1158,680 1165,680 1173,680 1180,680 1188,680 1196,680 1203,680 1211,680 1218,680 1226,680 1233,680" stroke="#0000cd" fill="none"/>
 <text x="1195" y="678" fill="#000000" font-family="Arial" font-size="12">1</text>
 <polygon points="1233,679 1238,680 1233,682 1233,679" stroke="#0000cd" fill="#0000cd"/>
 <polyline points="921,784 929,782 937,779 945,776 954,773 962,770 971,766 979,763 988,759 996,754 1004,750 1013,745 1021,740 1030,734 1039,728 1047,722 1055,716 1062,710 1069,705 1076,700 1082,695" stroke="#0000cd" fill="none"/>
 <text x="994" y="748" fill="#000000" font-family="Arial" font-size="12">3</text>
 <polygon points="1080,694 1085,692 1083,696 1080,694" stroke="#0000cd" fill="#0000cd"/>
 <polyline points="914,807 935,813 959,820 986,826 1016,831 1048,834 1080,835 1113,833 1144,826 1174,816 1202,800 1214,791 1225,781 1235,770 1245,759 1254,747 1262,736 1270,725 1276,714 1282,704 1286,696" stroke="#0000cd" fill="none"/>
 <text x="1096" y="820" fill="#000000" font-family="Arial" font-size="12">5</text>
 <polygon points="1285,695 1289,692 1288,697 1285,695" stroke="#0000cd" fill="#0000cd"/>
 <polyline points="922,440 925,441 929,443 932,444 935,445 938,447 942,448 945,450 948,451 951,453 954,454 961,458 967,461 972,465 977,468 982,471 986,474 990,478 994,483 999,488 1004,494 1017,511 1029,530 1041,549 1051,568 1061,587 1069,606 1077,623 1083,639 1089,652 1093,664" stroke="#0000cd" fill="none"/>
 <text x="994" y="477" fill="#000000" font-family="Arial" font-size="12">2</text>
 <polygon points="1094,664 1094,669 1091,665 1094,664" stroke="#0000cd" fill="#0000cd"/>
 <polyline points="953,425 975,425 998,426 1024,428 1050,431 1076,435 1103,441 1130,449 1155,459 1179,472 1202,487 1219,502 1233,519 1246,538 1257,558 1266,579 1274,599 1280,618 1285,635 1288,651 1291,664" stroke="#0000cd" fill="none"/>
 <text x="1092" y="426" fill="#000000" font-family="Arial" font-size="12">17</text>
 <polygon points="1293,664 1292,669 1290,664 1293,664" stroke="#0000cd" fill="#0000cd"/>
 <polyline points="692,725 721,722 754,718 789,714 826,710 864,706 902,702 939,698 974,694 1006,690 1035,687" stroke="#0000cd" fill="none"/>
 <text x="880" y="693" fill="#000000" font-family="Arial" font-size="12">6</text>
 <polygon points="1035,686 1040,687 1035,689 1035,686" stroke="#0000cd" fill="#0000cd"/>
 <polyline points="667,743 674,745 682,747 690,749 698,750 706,752 715,754 723,755 732,757 740,758 748,759 761,761 783,763 810,765 842,767 876,770 910,772 942,774 969,775 991,775 1004,774 1034,769 1064,762 1094,754 1123,746 1152,737 1179,727 1204,718 1227,709 1247,701 1264,694" stroke="#0000cd" fill="none"/>
 <text x="990" y="772" fill="#000000" font-family="Arial" font-size="12">14</text>
 <polygon points="1264,692 1269,691 1265,695 1264,692" stroke="#0000cd" fill="#0000cd"/>
 <polygon points="176,522 54,522 52,525 52,544 174,544 176,542 176,522" stroke="#bebebe" fill="#ffffff"/>
 <polyline points="174,525 52,525" stroke="#bebebe" fill="none"/>
 <polyline points="174,525 174,544" stroke="#bebebe" fill="none"/>
 <polyline points="174,525 176,522" stroke="#bebebe" fill="none"/>
 <text x="60" y="538" fill="#000000" font-family="Arial" font-size="12">AFL-2.57b/afl-fuzz.c</text>
 <polygon points="422,1057 310,1057 308,1060 308,1079 420,1079 422,1077 422,1057" stroke="#bebebe" fill="#ffffff"/>
 <polyline points="420,1060 308,1060" stroke="#bebebe" fill="none"/>
 <polyline points="420,1060 420,1079" stroke="#bebebe" fill="none"/>
 <polyline points="420,1060 422,1057" stroke="#bebebe" fill="none"/>
 <text x="316" y="1073" fill="#000000" font-family="Arial" font-size="12">AFL-2.57b/afl-as.c</text>
 <polyline points="133,545 140,550 148,555 156,561 164,568 172,575 181,583 188,591 196,600 202,610 208,620 225,664 233,705 233,744 229,780 222,815 216,850 213,886 215,923 224,962 244,1005 249,1012 255,1019 261,1026 268,1031 275,1037 282,1041 290,1045 298,1049 305,1053 313,1056" stroke="#0000cd" fill="none"/>
 <text x="245" y="1003" fill="#000000" font-family="Arial" font-size="12">7</text>
 <polygon points="314,1054 318,1057 313,1057 314,1054" stroke="#0000cd" fill="#0000cd"/>
 <polyline points="176,529 200,528 228,527 258,527 290,526 324,526 359,527 395,528 430,531 466,534 500,538 503,539 508,540 515,542 522,544 531,546 540,549 550,552 560,554 570,557 580,560" stroke="#0000cd" fill="none"/>
 <text x="355" y="523" fill="#000000" font-family="Arial" font-size="12">384</text>
 <polygon points="581,558 585,561 580,562 581,558" stroke="#0000cd" fill="#0000cd"/>
 <polyline points="117,522 120,503 126,476 135,443 146,405 160,364 178,321 199,278 225,237 254,199 288,165 312,147 339,133 367,122 397,114 427,108 456,104 486,103 513,102 539,103 563,105" stroke="#0000cd" fill="none"/>
 <text x="362" y="103" fill="#000000" font-family="Arial" font-size="12">6</text>
 <polygon points="563,103 568,105 563,106 563,103" stroke="#0000cd" fill="#0000cd"/>
 <polyline points="120,522 126,508 135,490 147,468 160,444 176,418 194,391 215,364 237,338 262,314 288,293 308,280 327,269 344,261 361,255 377,251 394,248 412,245 432,243 453,240 478,237 481,237 483,236 486,235 488,235 490,234 492,234 494,234 496,235 498,236 500,237 513,250 520,264 523,279 522,294 521,310 519,325 518,341 519,357 525,372 536,387 538,388 539,390 541,391 542,393 544,394 545,395 547,396 549,397 550,398 552,399" stroke="#0000cd" fill="none"/>
 <text x="362" y="239" fill="#000000" font-family="Arial" font-size="12">1</text>
 <polygon points="552,398 556,401 551,401 552,398" stroke="#0000cd" fill="#0000cd"/>
 <polyline points="136,544 147,549 159,556 173,562 188,570 203,577 220,584 237,592 254,599 271,606 288,612 311,621 331,628 349,635 365,641 381,647 397,651 414,656 433,660 454,663 478,667 487,668 506,668 532,668 562,669 595,669 628,669 658,669 684,669 703,669 712,669 747,670 782,671 817,672 853,673 887,674 921,675 952,676 982,677 1010,677 1034,678" stroke="#0000cd" fill="none"/>
 <text x="614" y="666" fill="#000000" font-family="Arial" font-size="12">221</text>
 <polygon points="1035,676 1040,678 1035,680 1035,676" stroke="#0000cd" fill="#0000cd"/>
 <polyline points="132,545 139,550 146,555 154,562 162,569 170,576 179,584 187,593 194,601 202,611 208,620 224,652 234,683 239,711 241,739 241,766 242,792 246,819 253,845 267,873 288,901 306,920 323,934 339,945 355,954 372,960 390,965 409,968 430,972 452,976 478,980 481,981 483,981 486,982 488,983 490,983 492,983 494,983 496,982 498,982 500,980 512,967 519,954 521,939 520,924 518,909 516,894 516,879 518,864 524,850 536,837 544,834 558,832 577,830 599,829 623,829 646,828 668,828 688,828 703,828 712,827 724,826 736,824 748,822 760,820 772,818 784,816 795,814 807,812 818,810 828,808" stroke="#0000cd" fill="none"/>
 <text x="479" y="978" fill="#000000" font-family="Arial" font-size="12">490</text>
 <polygon points="828,806 833,806 828,809 828,806" stroke="#0000cd" fill="#0000cd"/>
 <polyline points="116,522 119,502 123,474 129,439 137,398 148,353 161,305 177,256 196,207 218,159 244,114 248,108 252,102 255,98 259,93 262,90 266,86 271,83 276,80 281,77 288,74 365,46 434,27 497,16 556,12 614,13 671,19 732,28 798,39 871,50 954,60 988,63 1020,64 1049,66 1077,68 1102,71 1126,78 1147,88 1167,103 1185,124 1202,151 1227,209 1247,269 1263,331 1275,392 1284,452 1289,508 1293,559 1295,603 1295,638 1295,664" stroke="#0000cd" fill="none"/>
 <text x="749" y="29" fill="#000000" font-family="Arial" font-size="12">1040</text>
 <polygon points="1296,664 1294,669 1293,664 1296,664" stroke="#0000cd" fill="#0000cd"/>
 <polyline points="115,522 116,498 119,464 124,422 132,374 144,323 160,269 182,217 210,168 245,124 288,87 304,78 319,72 333,70 347,71 361,73 375,76 389,80 405,83 423,86 442,87 485,86 525,81 561,75 596,69 628,65 659,64 689,68 718,78 747,97 776,125 783,137 792,158 803,186 815,219 827,255 839,292 851,329 862,362 870,391 877,413" stroke="#0000cd" fill="none"/>
 <text x="486" y="83" fill="#000000" font-family="Arial" font-size="12">3</text>
 <polygon points="879,413 879,418 875,414 879,413" stroke="#0000cd" fill="#0000cd"/>
 <polyline points="130,544 136,549 143,555 151,562 159,569 168,576 176,584 185,593 193,602 201,611 208,620 220,639 229,657 235,674 239,690 242,706 246,721 252,736 260,751 272,766 288,780 310,797 331,811 352,824 372,833 391,840 411,843 432,843 453,839 476,831 500,819 507,814 512,809 515,803 518,796 519,790 521,783 522,776 525,770 530,763 536,757 538,756 540,755 542,753 544,752 546,751 548,750 550,749 552,747 555,746 557,745" stroke="#0000cd" fill="none"/>
 <text x="358" y="778" fill="#000000" font-family="Arial" font-size="12">20</text>
 <polygon points="556,744 562,744 558,747 556,744" stroke="#0000cd" fill="#0000cd"/>
 <polyline points="413,1057 416,1056 420,1054 423,1053 426,1051 429,1049 432,1047 435,1044 437,1042 440,1039 442,1036 460,1007 470,979 473,953 471,926 468,900 463,874 460,846 460,818 465,787 478,754 480,751 482,748 484,746 486,745 489,743 491,741 493,740 496,738 498,735 500,732 507,719 511,707 514,695 515,684 516,673 517,662 519,651 522,640 527,629 536,617 540,613 544,609 548,605 553,602 558,599 562,596 567,593 572,591 577,588 582,586" stroke="#0000cd" fill="none"/>
 <text x="486" y="730" fill="#000000" font-family="Arial" font-size="12">5</text>
 <polygon points="582,584 587,583 583,587 582,584" stroke="#0000cd" fill="#0000cd"/>
 <polygon points="941,1029 828,1029 826,1032 826,1051 938,1051 941,1049 941,1029" stroke="#bebebe" fill="#ffffff"/>
 <polyline points="938,1032 826,1032" stroke="#bebebe" fill="none"/>
 <polyline points="938,1032 938,1051" stroke="#bebebe" fill="none"/>
 <polyline points="938,1032 941,1029" stroke="#bebebe" fill="none"/>
 <text x="834" y="1045" fill="#000000" font-family="Arial" font-size="12">AFL-2.57b/afl-as.h</text>
 <polyline points="422,1074 427,1074 433,1075 439,1075 444,1075 450,1076 456,1076 461,1077 467,1077 473,1077 478,1077 501,1077 529,1076 562,1074 599,1072 637,1068 677,1064 716,1060 754,1056 789,1052 820,1048" stroke="#0000cd" fill="none"/>
 <text x="621" y="1058" fill="#000000" font-family="Arial" font-size="12">7</text>
 <polygon points="820,1046 825,1047 820,1050 820,1046" stroke="#0000cd" fill="#0000cd"/>
 <polyline points="428,1066 435,1066 442,1065 449,1065 457,1064 464,1063 471,1062 479,1061 486,1059 493,1058 500,1056 505,1055 509,1054 512,1053 515,1051 518,1050 521,1048 524,1047 527,1045 531,1044 536,1042 568,1035 607,1030 653,1025 701,1021 752,1016 802,1010 849,1003 891,993 927,980 954,964 963,956 969,948 973,940 976,932 978,924 979,915 981,906 983,897 986,886 990,875 1000,854 1011,834 1021,813 1033,792 1044,773 1054,754 1064,737 1073,722 1081,708 1088,697" stroke="#cd0000" fill="none"/>
 <text x="750" y="1011" fill="#000000" font-family="Arial" font-size="12">9 / 1</text>
 <polygon points="1088,697 1091,695 1091,692 1088,693 1088,697" stroke="#cd0000" fill="#cd0000"/>
 <polygon points="428,1066 425,1065 422,1067 425,1069 428,1066" stroke="#cd0000" fill="#cd0000"/>
 <polyline points="422,1065 430,1064 437,1063 445,1061 453,1060 461,1058 469,1055 477,1053 485,1050 493,1047 500,1043 505,1040 510,1037 513,1033 516,1030 518,1026 521,1022 524,1019 527,1015 531,1011 536,1007 556,995 575,987 592,980 608,976 624,972 640,968 657,963 674,957 692,948 712,935 717,931 722,927 725,924 728,920 731,917 733,913 736,909 739,904 743,900 748,895 759,885 771,875 784,865 796,856 808,846 820,838 832,830 842,822 852,815 861,809" stroke="#0000cd" fill="none"/>
 <text x="617" y="933" fill="#000000" font-family="Arial" font-size="12">18</text>
 <polygon points="860,808 865,806 862,811 860,808" stroke="#0000cd" fill="#0000cd"/>
 <polyline points="422,1076 427,1077 433,1077 439,1078 444,1078 450,1079 456,1079 461,1080 467,1080 473,1081 478,1081 481,1081 483,1081 485,1081 487,1081 489,1081 491,1081 493,1081 495,1081 497,1081 500,1081 551,1082 613,1083 684,1085 761,1087 840,1086 917,1084 991,1077 1058,1066 1115,1050 1158,1028 1190,1001 1216,968 1237,931 1255,893 1268,853 1278,814 1285,778 1289,745 1292,718 1293,697" stroke="#0000cd" fill="none"/>
 <text x="876" y="1078" fill="#000000" font-family="Arial" font-size="12">38</text>
 <polygon points="1292,696 1294,691 1295,696 1292,696" stroke="#0000cd" fill="#0000cd"/>
 <polyline points="422,1063 430,1061 439,1059 448,1056 456,1053 464,1049 472,1045 480,1040 487,1035 494,1029 500,1022 516,997 524,973 527,949 524,925 520,902 516,878 513,854 514,829 521,803 536,777 539,773 543,769 547,765 551,762 555,759 560,756 565,753 569,751 574,748 579,746" stroke="#0000cd" fill="none"/>
 <text x="482" y="1020" fill="#000000" font-family="Arial" font-size="12">29</text>
 <polygon points="579,744 584,743 580,747 579,744" stroke="#0000cd" fill="#0000cd"/>
 <polygon points="427,581 305,581 303,584 303,603 425,603 427,601 427,581" stroke="#bebebe" fill="#ffffff"/>
 <polyline points="425,584 303,584" stroke="#bebebe" fill="none"/>
 <polyline points="425,584 425,603" stroke="#bebebe" fill="none"/>
 <polyline points="425,584 427,581" stroke="#bebebe" fill="none"/>
 <text x="311" y="597" fill="#000000" font-family="Arial" font-size="12">AFL-2.57b/afl-tmin.c</text>
 <polyline points="427,595 432,595 437,595 442,596 447,596 453,596 458,596 463,596 468,596 473,596 478,596 481,596 483,596 485,597 487,597 489,597 491,597 493,597 495,596 497,596 500,596 507,595 515,594 522,593 529,592 537,591 544,590 552,589 559,587 566,586 573,585" stroke="#0000cd" fill="none"/>
 <text x="482" y="594" fill="#000000" font-family="Arial" font-size="12">45</text>
 <polygon points="572,583 577,583 573,586 572,583" stroke="#0000cd" fill="#0000cd"/>
 <polyline points="407,581 411,579 415,578 419,575 423,573 426,571 430,568 433,565 437,562 439,559 442,555 462,521 472,490 476,460 475,431 471,402 466,372 463,342 462,309 467,274 478,236 480,232 485,225 491,216 498,206 506,195 513,185 521,175 527,167 533,161 536,157 541,153 546,149 551,146 557,142 562,139 568,136 573,133 578,130 584,127 589,125" stroke="#0000cd" fill="none"/>
 <text x="486" y="201" fill="#000000" font-family="Arial" font-size="12">2</text>
 <polygon points="589,124 594,123 590,127 589,124" stroke="#0000cd" fill="#0000cd"/>
 <polyline points="403,581 407,579 411,578 416,575 420,573 424,571 428,568 432,565 435,562 439,559 442,555 450,544 455,533 458,522 459,512 459,501 459,491 461,481 464,470 469,460 478,450 483,446 487,443 492,439 498,436 503,433 508,431 514,428 520,426 525,424 531,422" stroke="#0000cd" fill="none"/>
 <text x="486" y="433" fill="#000000" font-family="Arial" font-size="12">1</text>
 <polygon points="531,420 536,421 532,424 531,420" stroke="#0000cd" fill="#0000cd"/>
 <polyline points="375,604 383,612 392,621 403,631 415,641 428,650 442,657 456,663 471,665 485,665 500,660 506,657 510,653 514,648 516,644 518,639 520,634 522,629 526,625 530,621 536,617 556,609 574,604 591,602 606,601 621,603 637,605 653,609 671,612 690,615 712,617 749,620 780,623 808,626 834,629 859,632 883,636 909,640 937,645 968,651 1004,658 1009,659 1013,660 1018,661 1022,662 1027,663 1032,664 1036,665 1041,666 1045,667 1050,668" stroke="#0000cd" fill="none"/>
 <text x="755" y="617" fill="#000000" font-family="Arial" font-size="12">30</text>
 <polygon points="1050,667 1055,669 1049,670 1050,667" stroke="#0000cd" fill="#0000cd"/>
 <polyline points="370,603 374,614 380,627 386,642 395,659 405,676 416,692 429,709 444,724 460,737 478,748 481,749 483,750 485,751 487,751 489,751 491,751 493,751 495,750 497,749 500,748 506,745 510,742 513,738 516,734 518,730 520,726 523,722 526,718 530,715 536,712 557,704 575,697 593,692 609,689 625,688 641,688 657,691 674,696 692,703 712,712 718,716 723,720 726,725 729,730 731,735 733,741 735,746 738,751 742,756 748,760 754,764 761,768 768,771 775,774 782,777 789,780 797,782 804,785 811,786 818,788" stroke="#0000cd" fill="none"/>
 <text x="617" y="685" fill="#000000" font-family="Arial" font-size="12">92</text>
 <polygon points="819,786 823,789 818,790 819,786" stroke="#0000cd" fill="#0000cd"/>
 <polyline points="427,589 436,588 445,587 454,586 462,584 470,583 478,581 485,579 491,577 496,575 500,572 507,565 512,558 515,550 517,542 518,534 519,526 520,518 523,510 528,503 536,497 551,490 571,486 594,484 619,484 646,484 672,486 698,488 722,490 744,491 761,492 761,492 764,492 770,492 783,492 803,492 834,492 877,492 935,492 1008,492 1100,492 1129,496 1155,506 1180,521 1203,540 1223,561 1241,584 1256,607 1269,629 1279,649 1287,665" stroke="#0000cd" fill="none"/>
 <text x="873" y="490" fill="#000000" font-family="Arial" font-size="12">135</text>
 <polygon points="1289,664 1289,669 1286,665 1289,664" stroke="#0000cd" fill="#0000cd"/>
 <polyline points="382,581 387,577 393,574 398,569 405,565 411,560 417,555 424,550 430,545 436,539 442,534 447,529 451,525 454,521 456,516 459,513 461,509 464,505 468,501 472,498 478,494 497,486 521,479 548,472 579,466 610,462 642,457 673,453 702,450 727,447 748,444 754,443 760,443 766,442 772,441 778,441 784,440 790,439 796,438 802,438 808,437" stroke="#0000cd" fill="none"/>
 <text x="621" y="446" fill="#000000" font-family="Arial" font-size="12">1</text>
 <polygon points="808,435 813,436 809,438 808,435" stroke="#0000cd" fill="#0000cd"/>
 <polyline points="372,604 380,617 389,635 401,655 413,677 427,699 439,720 452,739 462,755 471,766 478,772 481,773 483,774 485,775 487,775 489,775 491,774 493,774 495,773 497,773 500,772 505,771 509,770 512,769 515,767 518,766 521,764 524,762 528,761 532,759 536,757 540,756 544,755 548,753 552,752 556,751 560,750 564,749 568,747 572,746 576,745" stroke="#0000cd" fill="none"/>
 <text x="486" y="770" fill="#000000" font-family="Arial" font-size="12">7</text>
 <polygon points="575,743 581,744 576,747 575,743" stroke="#0000cd" fill="#0000cd"/>
 <polyline points="906,1029 911,1026 916,1024 921,1021 926,1017 931,1014 936,1010 941,1006 945,1001 950,997 954,992 960,982 970,963 983,935 999,901 1016,863 1034,824 1051,786 1067,750 1081,720 1091,697" stroke="#0000cd" fill="none"/>
 <text x="990" y="891" fill="#000000" font-family="Arial" font-size="12">15</text>
 <polygon points="1089,696 1093,692 1093,697 1089,696" stroke="#0000cd" fill="#0000cd"/>
 <polyline points="941,1039 963,1037 988,1035 1015,1031 1043,1025 1071,1018 1100,1008 1128,997 1154,983 1179,966 1202,947 1222,924 1239,898 1253,870 1265,842 1274,813 1281,784 1286,758 1289,734 1292,713 1293,697" stroke="#0000cd" fill="none"/>
 <text x="1092" y="980" fill="#000000" font-family="Arial" font-size="12">17</text>
 <polygon points="1292,697 1294,692 1295,697 1292,697" stroke="#0000cd" fill="#0000cd"/>
 <polygon points="434,1122 298,1122 296,1125 296,1144 432,1144 434,1142 434,1122" stroke="#bebebe" fill="#ffffff"/>
 <polyline points="432,1125 296,1125" stroke="#bebebe" fill="none"/>
 <polyline points="432,1125 432,1144" stroke="#bebebe" fill="none"/>
 <polyline points="432,1125 434,1122" stroke="#bebebe" fill="none"/>
 <text x="304" y="1138" fill="#000000" font-family="Arial" font-size="12">AFL-2.57b/afl-gotcpu.c</text>
 <polyline points="397,1122 402,1120 406,1117 411,1115 416,1112 421,1108 426,1105 430,1101 435,1097 438,1093 442,1088 453,1070 460,1054 464,1038 466,1023 466,1007 466,992 466,976 468,959 471,940 478,920 480,915 482,911 485,908 487,905 489,902 492,900 494,897 496,893 498,889 500,884 507,851 510,809 510,761 508,709 506,655 505,601 506,550 511,504 521,466 536,437 537,436 538,435 540,433 541,432 542,431 543,430 545,429 546,428 548,427 549,426" stroke="#0000cd" fill="none"/>
 <text x="486" y="882" fill="#000000" font-family="Arial" font-size="12">1</text>
 <polygon points="548,425 553,424 550,428 548,425" stroke="#0000cd" fill="#0000cd"/>
 <polyline points="434,1141 438,1142 443,1142 447,1143 452,1143 456,1143 461,1144 465,1144 469,1144 474,1144 478,1144 481,1144 483,1144 485,1144 487,1144 489,1144 491,1144 493,1144 495,1144 497,1144 500,1144 526,1144 549,1145 569,1145 588,1146 606,1146 624,1146 643,1146 663,1145 686,1144 712,1142 725,1141 746,1139 772,1137 803,1133 836,1130 868,1125 898,1121 924,1116 943,1110 954,1105 980,1078 998,1051 1009,1024 1015,997 1018,969 1019,940 1019,909 1022,877 1028,842 1040,804 1045,792 1050,780 1055,767 1061,755 1066,744 1072,732 1077,722 1082,712 1086,704 1090,696" stroke="#0000cd" fill="none"/>
 <text x="759" y="1134" fill="#000000" font-family="Arial" font-size="12">4</text>
 <polygon points="1088,695 1092,691 1091,697 1088,695" stroke="#0000cd" fill="#0000cd"/>
 <polyline points="434,1140 457,1141 482,1141 510,1140 538,1138 567,1135 597,1131 627,1124 656,1116 685,1106 712,1093 723,1087 732,1081 739,1076 746,1069 751,1063 756,1056 761,1048 765,1039 770,1029 776,1018 784,999 789,982 791,966 792,950 792,935 792,920 793,905 796,889 802,872 812,854 816,849 820,843 824,838 829,834 834,829 839,824 844,820 849,816 854,812 859,809" stroke="#0000cd" fill="none"/>
 <text x="617" y="1091" fill="#000000" font-family="Arial" font-size="12">20</text>
 <polygon points="858,808 863,806 860,811 858,808" stroke="#0000cd" fill="#0000cd"/>
 <polyline points="405,1144 451,1155 510,1168 580,1180 659,1189 744,1193 832,1190 919,1179 1005,1157 1085,1122 1158,1073 1191,1040 1218,1001 1240,959 1258,915 1271,870 1280,827 1287,786 1291,750 1293,720 1294,697" stroke="#0000cd" fill="none"/>
 <text x="876" y="1169" fill="#000000" font-family="Arial" font-size="12">15</text>
 <polygon points="1292,697 1294,692 1296,697 1292,697" stroke="#0000cd" fill="#0000cd"/>
 <polygon points="425,1005 307,1005 305,1008 305,1027 423,1027 425,1025 425,1005" stroke="#bebebe" fill="#ffffff"/>
 <polyline points="423,1008 305,1008" stroke="#bebebe" fill="none"/>
 <polyline points="423,1008 423,1027" stroke="#bebebe" fill="none"/>
 <polyline points="423,1008 425,1005" stroke="#bebebe" fill="none"/>
 <text x="313" y="1021" fill="#000000" font-family="Arial" font-size="12">AFL-2.57b/afl-gcc.c</text>
 <polyline points="376,1005 381,999 387,991 394,982 401,972 409,962 416,950 423,938 430,926 436,914 442,901 450,879 454,859 456,840 457,823 457,806 457,790 459,773 462,755 468,735 478,714 480,711 482,708 484,706 486,705 488,703 491,701 493,700 495,698 498,695 500,692 505,683 509,675 512,668 514,660 516,653 518,646 521,639 524,632 529,625 536,617 540,613 545,609 550,605 555,602 560,599 565,596 570,593 575,591 580,588 585,586" stroke="#0000cd" fill="none"/>
 <text x="482" y="690" fill="#000000" font-family="Arial" font-size="12">19</text>
 <polygon points="585,584 590,584 586,587 585,584" stroke="#0000cd" fill="#0000cd"/>
 <polyline points="425,1021 434,1021 443,1021 452,1021 461,1021 469,1020 477,1019 484,1018 490,1016 496,1014 500,1012 508,1006 513,999 516,991 517,983 518,975 519,967 521,959 524,951 529,944 536,937 556,930 591,925 636,922 689,919 746,917 802,915 855,912 900,907 935,902 954,894 964,884 971,874 975,863 976,853 977,842 977,830 978,818 979,806 983,793 990,780 997,769 1006,759 1014,749 1024,739 1033,730 1043,722 1052,714 1061,707 1069,701 1077,695" stroke="#0000cd" fill="none"/>
 <text x="759" y="913" fill="#000000" font-family="Arial" font-size="12">3</text>
 <polygon points="1076,693 1081,692 1078,696 1076,693" stroke="#0000cd" fill="#0000cd"/>
 <polyline points="425,1018 434,1018 443,1017 452,1016 461,1016 469,1015 477,1013 484,1012 490,1010 496,1008 500,1005 508,997 514,989 517,980 518,972 519,963 520,953 521,944 524,935 528,926 536,917 560,897 582,883 604,874 625,867 647,863 669,860 693,857 718,853 746,847 776,837 784,834 791,831 799,828 807,825 815,823 823,820 830,817 838,814 844,811 851,808" stroke="#0000cd" fill="none"/>
 <text x="617" y="852" fill="#000000" font-family="Arial" font-size="12">17</text>
 <polygon points="850,807 855,807 851,810 850,807" stroke="#0000cd" fill="#0000cd"/>
 <polyline points="403,1027 412,1029 421,1031 431,1032 441,1032 451,1032 461,1032 472,1030 481,1027 491,1024 500,1019 507,1013 512,1007 515,999 517,992 518,984 519,976 521,968 524,960 529,953 536,947 547,944 565,941 589,940 617,940 647,940 677,940 705,941 730,941 749,942 761,942 761,942 764,942 770,942 783,942 803,942 834,942 877,942 935,942 1008,942 1100,942 1135,937 1166,922 1193,900 1216,872 1236,841 1253,808 1266,775 1277,744 1285,718 1290,697" stroke="#0000cd" fill="none"/>
 <text x="876" y="940" fill="#000000" font-family="Arial" font-size="12">25</text>
 <polygon points="1289,696 1292,692 1292,697 1289,696" stroke="#0000cd" fill="#0000cd"/>
 <polyline points="398,1005 408,1001 418,996 429,991 440,985 451,979 462,971 473,963 483,954 492,944 500,934 510,917 516,901 518,885 518,870 517,855 516,840 517,825 519,810 525,794 536,777 539,773 543,769 547,765 552,762 556,759 561,756 566,753 571,751 576,748 581,746" stroke="#0000cd" fill="none"/>
 <text x="482" y="932" fill="#000000" font-family="Arial" font-size="12">10</text>
 <polygon points="580,744 586,744 582,747 580,744" stroke="#0000cd" fill="#0000cd"/>
 <polygon points="437,302 296,302 294,305 294,324 434,324 437,322 437,302" stroke="#bebebe" fill="#ffffff"/>
 <polyline points="434,305 294,305" stroke="#bebebe" fill="none"/>
 <polyline points="434,305 434,324" stroke="#bebebe" fill="none"/>
 <polyline points="434,305 437,302" stroke="#bebebe" fill="none"/>
 <text x="302" y="318" fill="#000000" font-family="Arial" font-size="12">AFL-2.57b/afl-analyze.c</text>
 <polyline points="373,325 379,334 387,345 395,358 405,372 416,387 428,403 440,420 452,436 465,452 478,468 481,471 483,474 485,476 487,478 489,480 491,481 493,483 495,485 497,488 500,491 505,498 508,504 511,510 514,516 516,522 518,527 521,532 525,537 530,542 536,547 538,548 540,550 542,551 544,553 547,554 549,555 551,556 553,557 556,558 558,559" stroke="#0000cd" fill="none"/>
 <text x="482" y="466" fill="#000000" font-family="Arial" font-size="12">45</text>
 <polygon points="559,558 563,561 557,561 559,558" stroke="#0000cd" fill="#0000cd"/>
 <polyline points="385,302 390,299 396,295 401,291 407,287 414,282 420,277 426,271 431,266 437,260 442,254 448,246 452,239 455,231 457,225 459,218 461,211 464,204 467,197 472,190 478,183 487,175 497,167 507,160 518,154 528,148 539,142 550,137 560,133 570,129 580,125" stroke="#0000cd" fill="none"/>
 <text x="486" y="164" fill="#000000" font-family="Arial" font-size="12">2</text>
 <polygon points="580,123 585,123 581,127 580,123" stroke="#0000cd" fill="#0000cd"/>
 <polyline points="394,324 403,328 412,331 422,336 433,340 444,345 455,349 466,354 478,359 489,364 500,369 504,371 508,373 512,375 515,377 518,379 521,380 524,382 527,384 531,385 536,387 540,388 543,390 547,391 551,393 555,394 558,395 562,396 566,398 570,399 574,400" stroke="#0000cd" fill="none"/>
 <text x="486" y="357" fill="#000000" font-family="Arial" font-size="12">1</text>
 <polygon points="574,398 579,401 573,402 574,398" stroke="#0000cd" fill="#0000cd"/>
 <polyline points="373,324 380,335 389,347 400,361 413,375 426,388 441,399 456,407 471,411 486,410 500,403 510,393 516,382 519,370 519,358 518,345 517,332 517,320 520,308 526,297 536,287 544,284 559,282 578,280 600,280 624,280 647,280 670,281 689,282 703,285 712,287 723,296 733,310 743,327 753,346 763,367 772,388 782,408 792,425 802,439 812,449 827,458 842,462 855,464 869,464 882,463 895,462 909,462 923,463 938,467 954,474 962,479 968,484 974,489 978,494 982,499 986,504 990,510 994,516 999,523 1004,531 1014,545 1025,560 1035,575 1044,590 1054,605 1062,619 1070,633 1077,645 1084,656 1089,665" stroke="#0000cd" fill="none"/>
 <text x="755" y="334" fill="#000000" font-family="Arial" font-size="12">29</text>
 <polygon points="1091,664 1092,669 1088,666 1091,664" stroke="#0000cd" fill="#0000cd"/>
 <polyline points="432,302 433,302 434,301 435,301 436,300 437,300 438,299 439,299 440,298 441,298 442,297 448,294 452,290 455,286 457,281 460,277 462,273 464,269 468,265 472,261 478,258 481,257 483,256 485,255 487,255 489,255 491,255 493,255 496,256 498,257 500,258 509,266 515,274 518,284 519,293 520,303 520,313 521,323 523,333 528,342 536,351 554,364 572,370 590,373 608,372 625,370 643,369 660,368 677,371 695,379 712,392 723,405 731,417 735,430 738,442 739,455 739,468 739,482 740,496 743,512 748,529 751,536 754,543 757,548 759,553 762,558 765,562 767,567 770,573 773,579 776,586 781,602 785,616 788,629 790,641 791,652 793,663 796,675 800,687 805,700 812,715 816,723 821,730 827,738 832,745 838,752 843,759 849,765 855,771 860,776 865,781" stroke="#0000cd" fill="none"/>
 <text x="614" y="349" fill="#000000" font-family="Arial" font-size="12">102</text>
 <polygon points="867,780 869,784 864,782 867,780" stroke="#0000cd" fill="#0000cd"/>
 <polyline points="433,302 434,302 435,301 436,301 437,300 438,300 438,299 439,299 440,298 441,298 442,297 448,292 453,288 456,283 459,277 461,272 463,267 465,261 468,255 472,250 478,244 480,243 484,241 491,239 498,235 507,231 516,228 523,224 530,221 534,219 536,218 549,216 565,214 584,213 603,213 624,212 645,213 664,213 683,215 699,216 712,218 771,230 824,242 870,253 913,265 953,278 991,295 1029,316 1069,341 1111,372 1158,410 1182,433 1203,460 1222,488 1238,517 1252,547 1264,575 1273,602 1281,627 1287,648 1291,664" stroke="#0000cd" fill="none"/>
 <text x="873" y="236" fill="#000000" font-family="Arial" font-size="12">123</text>
 <polygon points="1292,664 1292,669 1289,665 1292,664" stroke="#0000cd" fill="#0000cd"/>
 <polyline points="380,302 387,297 395,292 403,286 413,280 423,275 433,269 444,264 455,259 467,254 478,251 489,248 501,245 516,241 534,239 555,237 578,238 606,242 637,249 672,261 712,277 733,288 753,301 773,315 791,330 809,346 824,361 839,377 851,391 862,403 870,414" stroke="#0000cd" fill="none"/>
 <text x="621" y="234" fill="#000000" font-family="Arial" font-size="12">1</text>
 <polygon points="872,413 874,418 869,415 872,413" stroke="#0000cd" fill="#0000cd"/>
 <polyline points="371,325 376,337 383,353 391,372 401,394 412,417 424,442 437,468 450,494 464,520 478,545 481,549 483,553 485,556 488,559 490,562 492,564 494,567 496,570 498,574 500,578 506,594 509,609 511,622 511,635 512,647 512,659 514,671 519,683 525,695 536,707 538,708 539,710 541,711 542,713 544,714 545,715 547,716 549,717 550,718 552,719" stroke="#0000cd" fill="none"/>
 <text x="486" y="543" fill="#000000" font-family="Arial" font-size="12">6</text>
 <polygon points="553,718 557,721 551,721 553,718" stroke="#0000cd" fill="#0000cd"/>
 <polygon points="432,870 300,870 298,873 298,892 430,892 432,890 432,870" stroke="#bebebe" fill="#ffffff"/>
 <polyline points="430,873 298,873" stroke="#bebebe" fill="none"/>
 <polyline points="430,873 430,892" stroke="#bebebe" fill="none"/>
 <polyline points="430,873 432,870" stroke="#bebebe" fill="none"/>
 <text x="306" y="886" fill="#000000" font-family="Arial" font-size="12">AFL-2.57b/llvm_mode</text>
 <polyline points="423,870 425,869 427,868 429,867 431,866 433,864 435,863 437,861 439,859 440,858 442,856 455,838 463,821 467,804 467,787 466,770 464,752 463,734 465,715 469,695 478,674 483,665 488,658 493,652 497,647 503,642 508,638 514,633 520,628 528,623 536,617 541,613 547,610 552,607 558,603 564,600 570,597 576,594 581,591 587,588 592,586" stroke="#0000cd" fill="none"/>
 <text x="482" y="642" fill="#000000" font-family="Arial" font-size="12">27</text>
 <polygon points="591,584 597,584 593,587 591,584" stroke="#0000cd" fill="#0000cd"/>
 <polyline points="424,870 426,869 428,868 430,867 432,866 434,864 436,863 437,861 439,859 440,858 442,856 453,835 460,807 464,774 466,736 466,697 465,658 465,620 467,585 471,555 478,531 480,528 482,525 484,523 486,522 488,520 491,518 493,517 495,515 498,512 500,509 505,501 509,493 512,485 514,478 515,471 517,464 520,457 524,451 529,444 536,437 538,436 540,435 541,433 543,432 545,431 547,430 549,429 551,428 553,427 555,426" stroke="#0000cd" fill="none"/>
 <text x="486" y="507" fill="#000000" font-family="Arial" font-size="12">1</text>
 <polygon points="555,424 560,424 556,427 555,424" stroke="#0000cd" fill="#0000cd"/>
 <polyline points="432,890 439,890 446,889 454,888 461,887 468,885 475,883 481,881 488,878 494,874 500,870 509,862 514,852 517,843 518,833 518,823 519,813 520,803 522,793 527,784 536,775 547,769 562,764 580,761 600,758 621,757 642,756 663,755 682,754 698,753 712,752 742,748 768,745 792,742 813,739 833,736 854,733 875,730 898,726 924,721 954,715 964,713 974,711 984,709 994,707 1004,704 1014,702 1024,700 1033,697 1042,695 1051,693" stroke="#0000cd" fill="none"/>
 <text x="755" y="741" fill="#000000" font-family="Arial" font-size="12">21</text>
 <polygon points="1051,691 1057,691 1052,694 1051,691" stroke="#0000cd" fill="#0000cd"/>
 <polyline points="374,892 382,901 391,912 403,924 415,935 429,946 443,954 458,960 472,963 486,961 500,954 511,943 517,931 520,918 520,905 519,892 517,878 517,865 519,851 525,839 536,827 552,818 573,810 599,804 628,800 660,797 693,794 726,793 759,793 790,793 818,793" stroke="#0000cd" fill="none"/>
 <text x="617" y="791" fill="#000000" font-family="Arial" font-size="12">22</text>
 <polygon points="818,791 823,793 818,795 818,791" stroke="#0000cd" fill="#0000cd"/>
 <polyline points="374,893 381,903 391,914 402,927 414,939 428,950 442,960 456,966 471,969 486,968 500,961 510,952 515,942 518,932 518,921 518,909 518,898 518,887 521,876 526,866 536,857 554,846 571,840 587,837 603,837 619,840 635,844 652,848 670,852 690,856 712,857 768,859 817,864 861,869 902,874 940,877 979,878 1018,876 1060,869 1106,857 1158,838 1177,828 1196,816 1212,802 1227,786 1241,770 1254,753 1264,737 1273,722 1281,708 1287,696" stroke="#0000cd" fill="none"/>
 <text x="876" y="861" fill="#000000" font-family="Arial" font-size="12">52</text>
 <polygon points="1285,695 1289,692 1288,697 1285,695" stroke="#0000cd" fill="#0000cd"/>
 <polyline points="432,880 439,879 446,878 454,876 461,874 468,871 475,869 481,865 488,862 494,858 500,853 509,844 514,835 517,825 518,816 519,806 519,796 520,786 523,776 528,766 536,757 538,756 539,755 541,753 542,752 544,751 546,750 548,749 549,748 551,747 553,746" stroke="#0000cd" fill="none"/>
 <text x="482" y="851" fill="#000000" font-family="Arial" font-size="12">10</text>
 <polygon points="553,744 558,744 554,747 553,744" stroke="#0000cd" fill="#0000cd"/>
 <polygon points="954,550 814,550 812,553 812,572 952,572 954,570 954,550" stroke="#bebebe" fill="#ffffff"/>
 <polyline points="952,553 812,553" stroke="#bebebe" fill="none"/>
 <polyline points="952,553 952,572" stroke="#bebebe" fill="none"/>
 <polyline points="952,553 954,550" stroke="#bebebe" fill="none"/>
 <text x="820" y="566" fill="#000000" font-family="Arial" font-size="12">AFL-2.57b/qemu_mode</text>
 <polyline points="934,572 941,574 948,576 955,579 962,581 969,584 976,586 984,589 990,592 997,596 1004,599 1014,605 1023,611 1032,618 1041,625 1050,633 1058,640 1065,647 1072,654 1078,660 1084,666" stroke="#0000cd" fill="none"/>
 <text x="990" y="590" fill="#000000" font-family="Arial" font-size="12">12</text>
 <polygon points="1086,665 1088,669 1083,667 1086,665" stroke="#0000cd" fill="#0000cd"/>
 <polygon points="437,735 295,735 293,738 293,757 435,757 437,755 437,735" stroke="#bebebe" fill="#ffffff"/>
 <polyline points="435,738 293,738" stroke="#bebebe" fill="none"/>
 <polyline points="435,738 435,757" stroke="#bebebe" fill="none"/>
 <polyline points="435,738 437,735" stroke="#bebebe" fill="none"/>
 <text x="301" y="751" fill="#000000" font-family="Arial" font-size="12">AFL-2.57b/experimental</text>
 <polyline points="371,735 376,725 382,713 390,699 399,684 410,668 421,651 434,635 448,618 463,603 478,589 480,587 482,586 485,585 487,585 489,584 491,583 493,583 495,582 497,581 500,579 505,576 509,573 512,570 515,568 518,565 520,563 523,560 527,557 531,555 536,552 553,544 575,537 600,529 627,522 655,515 683,507 711,500 736,493 758,486 776,480 785,477 793,473 802,469 811,465 819,462 827,458 836,454 843,450 850,446 857,443" stroke="#0000cd" fill="none"/>
 <text x="621" y="497" fill="#000000" font-family="Arial" font-size="12">2</text>
 <polygon points="856,441 861,441 858,444 856,441" stroke="#0000cd" fill="#0000cd"/>
 <polyline points="376,758 384,766 393,774 404,784 416,793 429,801 443,808 457,813 472,815 486,814 500,809 506,805 511,800 514,795 517,790 519,785 521,779 523,773 526,768 530,762 536,757 538,756 540,754 543,753 545,752 547,751 549,750 552,748 554,747 557,746 559,745" stroke="#0000cd" fill="none"/>
 <text x="486" y="807" fill="#000000" font-family="Arial" font-size="12">1</text>
 <polygon points="559,744 564,743 560,747 559,744" stroke="#0000cd" fill="#0000cd"/>
 <polygon points="179,780 51,780 49,783 49,802 177,802 179,800 179,780" stroke="#bebebe" fill="#ffffff"/>
 <polyline points="177,783 49,783" stroke="#bebebe" fill="none"/>
 <polyline points="177,783 177,802" stroke="#bebebe" fill="none"/>
 <polyline points="177,783 179,780" stroke="#bebebe" fill="none"/>
 <text x="57" y="796" fill="#000000" font-family="Arial" font-size="12">AFL-2.57b/test-instr.c</text>
 <polygon points="208,1084 22,1084 20,1087 20,1106 206,1106 208,1104 208,1084" stroke="#bebebe" fill="#ffffff"/>
 <polyline points="206,1087 20,1087" stroke="#bebebe" fill="none"/>
 <polyline points="206,1087 206,1106" stroke="#bebebe" fill="none"/>
 <polyline points="206,1087 208,1084" stroke="#bebebe" fill="none"/>
 <text x="28" y="1100" fill="#000000" font-family="Arial" font-size="12">AFL-2.57b/test-libfuzzer-target.c</text>
</svg>
